<?xml version="1.0" encoding="utf-8"?>
<!-- Generator: Adobe Illustrator 22.1.0, SVG Export Plug-In . SVG Version: 6.00 Build 0)  -->
<svg version="1.1" id="Layer_1" xmlns="http://www.w3.org/2000/svg" xmlns:xlink="http://www.w3.org/1999/xlink" x="0px" y="0px"
	 viewBox="0 0 16.4 16" style="enable-background:new 0 0 16.4 16;" xml:space="preserve">
<style type="text/css">
	.st0{opacity:0.98;}
	.st1{fill:#EA1E45;}
</style>
<g class="st0">
	<path class="st1" d="M14.7,0L1.5,0.1C0.7,0.1,0,0.8,0,1.6l0,3.6l3.7,0V4.5c0-0.4,0.4-0.8,0.8-0.8l0,0l7.3,0c0.4,0,0.8,0.4,0.8,0.8
		l0,0V5l3.7,0l0-3.6C16.2,0.7,15.6,0,14.7,0z"/>
	<path class="st1" d="M12.6,11.4c0,0.4-0.4,0.8-0.8,0.8l-7.3,0c-0.4,0-0.8-0.4-0.8-0.8v-0.6L0,11l0,3.6c0,0.8,0.7,1.5,1.5,1.5
		l13.2-0.1c0.8,0,1.5-0.7,1.5-1.5l0-3.6l-3.7,0L12.6,11.4z"/>
	
		<rect x="0" y="6.2" transform="matrix(1 -7.153262e-03 7.153262e-03 1 -5.746553e-02 1.365380e-02)" class="st1" width="3.7" height="3.7"/>
	
		<rect x="12.6" y="6.1" transform="matrix(1 -7.153262e-03 7.153262e-03 1 -5.656990e-02 0.1038)" class="st1" width="3.7" height="3.7"/>
</g>
</svg>
